<svg width="97" height="20" fill="none" xmlns="http://www.w3.org/2000/svg"><g id="Logo"><g id="Yoora" fill="#000"><path id="Shape" fill-rule="evenodd" clip-rule="evenodd" d="m34.698 2.255 4.648 9.883h.785v6.044h3.513v-6.044h.785l4.276-9.883h-3.469l-2.93 7.2h-.693l-3.25-7.2h-3.665Z"/><path id="Shape_2" fill-rule="evenodd" clip-rule="evenodd" d="M51.92 18.105c.815.328 1.745.491 2.793.491 1.062 0 2-.163 2.814-.49.815-.328 1.502-.775 2.062-1.342a5.785 5.785 0 0 0 1.276-1.953c.291-.735.437-1.51.437-2.324v-.502a6.21 6.21 0 0 0-.458-2.367 5.93 5.93 0 0 0-1.31-1.974 6.134 6.134 0 0 0-2.061-1.342c-.807-.327-1.727-.491-2.76-.491-1.004 0-1.913.164-2.727.49a6.23 6.23 0 0 0-2.084 1.343 5.717 5.717 0 0 0-1.31 1.974 6.342 6.342 0 0 0-.447 2.367v.502c0 .815.146 1.59.437 2.324.29.735.716 1.385 1.276 1.953.56.567 1.248 1.014 2.062 1.341Zm4.495-2.89c-.451.29-1.019.436-1.702.436-.655 0-1.215-.146-1.68-.437a2.69 2.69 0 0 1-1.047-1.221 4.251 4.251 0 0 1-.35-1.746c0-.683.12-1.283.36-1.8a2.91 2.91 0 0 1 1.059-1.232c.465-.306 1.018-.459 1.658-.459.654 0 1.21.153 1.669.459.458.305.81.716 1.058 1.232.247.517.371 1.117.371 1.8 0 .64-.12 1.222-.36 1.746-.24.523-.586.93-1.036 1.221Z"/><path id="Shape_3" fill-rule="evenodd" clip-rule="evenodd" d="M66.415 18.105c.814.328 1.745.491 2.792.491 1.062 0 2-.163 2.815-.49.814-.328 1.502-.775 2.062-1.342a5.785 5.785 0 0 0 1.276-1.953c.29-.735.436-1.51.436-2.324v-.502c0-.829-.152-1.618-.458-2.367a5.93 5.93 0 0 0-1.309-1.974 6.134 6.134 0 0 0-2.062-1.342c-.807-.327-1.727-.491-2.76-.491-1.003 0-1.912.164-2.727.49a6.23 6.23 0 0 0-2.084 1.343 5.717 5.717 0 0 0-1.309 1.974 6.342 6.342 0 0 0-.447 2.367v.502c0 .815.145 1.59.436 2.324.291.735.717 1.385 1.277 1.953.56.567 1.247 1.014 2.062 1.341Zm4.494-2.89c-.45.29-1.018.436-1.702.436-.654 0-1.214-.146-1.68-.437a2.69 2.69 0 0 1-1.047-1.221 4.251 4.251 0 0 1-.35-1.746c0-.683.12-1.283.36-1.8a2.91 2.91 0 0 1 1.06-1.232c.465-.306 1.017-.459 1.657-.459.655 0 1.211.153 1.67.459.458.305.81.716 1.058 1.232.247.517.37 1.117.37 1.8 0 .64-.12 1.222-.36 1.746-.24.523-.585.93-1.036 1.221Z"/><path id="Path" d="M77.876 18.182V6.225h2.771v5.128h-.065c0-1.688.36-2.99 1.08-3.906.72-.916 1.764-1.374 3.13-1.374h.459v3.01h-.873c-.96 0-1.701.259-2.225.775s-.786 1.262-.786 2.236v6.088h-3.49Z"/><path id="Shape_4" fill-rule="evenodd" clip-rule="evenodd" d="M93.855 15.89v2.292h2.77V10.85c0-1.106-.218-2.011-.654-2.716-.436-.706-1.073-1.233-1.91-1.582-.836-.35-1.865-.524-3.086-.524a44.784 44.784 0 0 0-3.928.175v2.945c.451-.029.953-.058 1.506-.087a65.185 65.185 0 0 1 2.88-.087c.64 0 1.105.152 1.396.458.291.305.437.763.437 1.374v.044h-2.16c-1.062 0-2 .134-2.815.403-.815.27-1.447.684-1.898 1.244-.451.56-.677 1.277-.677 2.15 0 .8.182 1.486.546 2.061.364.575.869 1.015 1.516 1.32.647.305 1.4.458 2.258.458.83 0 1.531-.152 2.106-.458a3.348 3.348 0 0 0 1.353-1.309c.145-.251.265-.528.36-.83Zm-.59-2.137v-.96h-2.181c-.611 0-1.08.149-1.408.447-.327.298-.49.702-.49 1.21 0 .48.163.87.49 1.168.328.298.797.447 1.408.447.392 0 .745-.069 1.058-.207.313-.138.57-.374.774-.709.204-.334.32-.8.35-1.396Z"/></g><g id="Symbol"><path id="Shape_5" transform="rotate(90 21.818 12.727)" fill="#004050" d="M21.818 12.727h7.273v21.818h-7.273z"/><path id="Shape_6" d="M10.91 10.91C4.883 10.91 0 6.024 0 0h21.818c0 6.025-4.884 10.91-10.909 10.91Z" fill="#00D565"/></g></g></svg>